PathFileType	4	(X/Y/Z)	C:/Users/beibeiliu/ov580/test_trc/User2\sequence.28_training_dense_left.trc
DataRate	CameraRate	NumFrames	NumMarkers	Units	OrigDataRate	OrigDataStartFrame	OrigNumFrames
120	120	16	19	mm	120	33	256
Frame#	Time	ThumbCMC			ThumbMCP			ThumbIP			ThumbTip			IndexMCP			IndexPIP			IndexTip			MiddleMCP			MiddlePIP			MiddleTip			RingMCP			RingPIP			RingTip			PinkyMCP			PinkyPIP			PinkyTip			BackHand1			BackHand2			BackHand3	
		X0	Y0	Z0	X1	Y1	Z1	X2	Y2	Z2	X3	Y3	Z3	X4	Y4	Z4	X5	Y5	Z5	X6	Y6	Z6	X7	Y7	Z7	X8	Y8	Z8	X9	Y9	Z9	X10	Y10	Z10	X11	Y11	Z11	X12	Y12	Z12	X13	Y13	Z13	X14	Y14	Z14	X15	Y15	Z15	X16	Y16	Z16	X17	Y17	Z17	X18	Y18	Z18	
32	0.266667	-183.366	2.26254	81.8885	-171.633	25.9087	64.0128	-154.453	45.2029	40.7001	-139.005	56.1143	25.5934	-156.905	-29.7165	15.1985	-145.603	-33.0042	-12.8682	-134.274	-37.1748	-38.6803	-130.07	-53.3493	20.0909	-107.127	-53.8444	-4.02676	-82.0568	-49.636	-24.607	-119.833	-68.2101	35.4741	-100.459	-73.2728	18.9626	-79.7383	-74.0595	-2.49181	-111.034	-77.9947	65.1552	-95.1797	-85.3085	45.2937	-80.8096	-97.7528	28.1596	-156.085	-66.9368	79.4303	-177.326	-61.5778	107.235	-182.374	-40.9906	77.8594	
33	0.275	-189.643	0.486483	80.6255	-178.73	23.4619	59.764	-161.12	41.7044	33.4257	-149.784	53.8678	22.1083	-151.464	-34.8182	15.39	-141.332	-36.5252	-11.4348	-129.223	-37.4153	-37.7886	-128.229	-53.5347	17.9726	-107.081	-55.1018	-3.45334	-85.0313	-53.1419	-24.2702	-115.321	-67.6444	35.6923	-97.0649	-72.0134	20.3642	-75.5357	-74.4773	-2.67434	-104.757	-76.8948	64.908	-88.0033	-81.5014	48.2574	-74.271	-94.7092	35.9579	-154.508	-64.9298	79.1759	-172.972	-64.6216	104.4	-182.333	-44.913	75.7102	
34	0.283333	-191.234	-4.14855	80.8426	-185.507	21.2967	59.5112	-170.544	37.568	34.6797	-157.199	49.9065	17.0685	-151.37	-33.8443	15.2609	-135.572	-34.8081	-13.9303	-123.857	-35.6053	-33.5336	-128.721	-55.1153	17.166	-106.641	-56.9618	-5.846	-84.5933	-55.3699	-29.7834	-112.952	-68.2797	39.705	-95.1477	-70.2668	17.7576	-73.0276	-72.932	-2.36883	-103.443	-70.0821	70.4882	-81.6851	-77.3612	50.7348	-66.0532	-85.5655	35.2995	-151.983	-64.654	80.7628	-172.02	-65.1181	109.59	-180.256	-47.3323	76.9268	
35	0.291667	-196.723	-6.45632	81.5072	-190.115	14.771	55.3657	-177.82	31.3041	32.4261	-165.452	45.7251	14.0988	-151.428	-34.8931	13.4417	-136.047	-30.9703	-14.4949	-120.268	-30.283	-31.8457	-126.615	-57.3593	19.6776	-109.186	-54.8311	-6.62928	-89.0683	-52.9953	-30.4993	-109.722	-64.9445	41.2081	-90.3204	-65.6826	19.2671	-71.2229	-62.7643	0.469325	-96.1031	-65.6235	67.5484	-75.1361	-66.3082	52.5974	-58.0243	-70.7731	42.4039	-147.481	-66.7736	81.7497	-168.389	-67.8838	109.895	-180.624	-48.0503	79.6455	
36	0.3	-201.824	-11.4904	80.8069	-195.705	9.1709	55.7247	-185.881	27.1827	31.6679	-178.108	44.3737	10.2186	-150.546	-38.4405	15.9071	-138.61	-36.1636	-7.60713	-121.04	-32.8184	-30.6414	-128.718	-53.0625	22.2116	-110.817	-48.4334	-3.22482	-84.9331	-42.9528	-23.8132	-109.082	-57.1415	43.4225	-90.0396	-52.9364	24.2397	-66.3596	-42.6676	-0.0317137	-94.3581	-53.8312	67.528	-74.2175	-49.4938	54.7831	-51.5965	-51.8536	44.1422	-145.839	-65.1831	87.7201	-166.682	-67.9101	110.59	-180.961	-51.2638	80.7171	
37	0.308333	-201.231	-14.0504	80.4618	-197.651	7.72964	55.0189	-188.824	26.7347	32.7948	-179.689	42.9313	11.8617	-151.996	-38.6489	12.7694	-141.5	-36.0162	-11.4185	-127.694	-30.393	-35.0304	-126.515	-47.6173	24.9214	-105.067	-37.4112	-0.445994	-80.8705	-22.3249	-16.9886	-106.329	-49.9678	43.6662	-86.8906	-37.8042	21.3131	-62.8467	-22.0747	6.3798	-96.3703	-49.7222	72.9483	-73.1293	-40.7964	59.5988	-56.4274	-37.295	44.564	-149.999	-62.2708	86.7549	-164.13	-69.02	113.797	-183.839	-51.5984	77.5629	
38	0.316667	-200.732	-15.1193	82.2813	-200.624	11.2517	57.7558	-188.381	29.9559	31.8378	-173.517	42.8699	17.9519	-157.192	-36.7885	16.4343	-146.382	-32.1978	-13.247	-127.384	-28.2897	-34.4986	-129.715	-40.3552	21.7003	-103.469	-24.6847	1.64575	-78.8012	0.456755	-8.93072	-107.991	-43.4257	39.1727	-87.2604	-29.3842	23.8838	-69.0993	-6.53486	12.9513	-95.6371	-45.7651	68.1574	-72.9847	-36.7702	58.561	-50.2937	-27.5634	43.4286	-146.726	-61.995	87.1248	-167.72	-66.5682	109.982	-185.659	-52.3238	78.0014	
39	0.325	-200.349	-13.4067	83.3973	-196.636	11.489	62.6569	-182.631	33.1479	33.3053	-164.605	45.93	15.3569	-155.919	-34.4087	11.9704	-146.407	-29.9642	-10.4331	-126.297	-18.7282	-34.7608	-124.266	-36.7265	21.4319	-102.093	-14.2653	4.76004	-83.3346	11.6048	3.48739	-110.169	-39.9562	38.5483	-87.6072	-21.2633	25.2624	-71.0454	7.71069	20.0317	-94.5802	-43.7879	66.0253	-73.5356	-31.0304	54.5624	-54.8695	-14.4708	41.987	-150.41	-61.9043	83.4622	-165.746	-66.2432	110.964	-187.69	-49.7615	79.7822	
40	0.333333	-204.18	-8.42887	80.5068	-195.349	15.248	60.1421	-180.978	36.1496	35.2766	-161.382	48.71	19.5499	-155.723	-33.4478	11.6474	-143.62	-23.8773	-12.331	-122.211	-10.1324	-28.2596	-126.284	-34.6035	21.2828	-104.313	-11.5219	6.4399	-91.5326	23.1271	9.35627	-108.688	-38.7997	38.7204	-90.1277	-17.6414	24.8692	-81.5321	18.0739	25.8823	-99.7076	-42.451	64.1305	-75.8928	-25.7824	53.673	-63.4392	-3.9523	40.23	-145.813	-62.0017	81.7861	-167.072	-65.969	109.941	-185.917	-51.4337	79.5633	
41	0.341667	-205.123	-8.95432	80.7135	-195.158	16.7638	64.7733	-177.101	40.2706	36.2894	-154.832	47.4509	24.1207	-158.523	-29.984	13.187	-143.059	-20.4129	-10.2069	-120.014	-0.253827	-20.6039	-126.611	-34.461	19.759	-105.644	-8.85918	5.81628	-92.7149	24.9516	18.4445	-109.21	-38.606	38.7143	-93.834	-13.4149	24.9868	-91.4103	21.0889	32.2656	-96.6071	-40.6638	64.0267	-78.692	-17.523	51.3055	-72.2823	13.3881	47.2361	-148.799	-60.5483	81.3661	-169.125	-64.2881	107.852	-188.777	-49.7152	79.4461	
42	0.35	-201.301	-7.47236	79.9421	-195.757	21.6056	62.2674	-171.099	39.3186	40.5116	-150.615	48.1786	30.5167	-160.332	-27.0335	11.698	-138.379	-11.4448	-10.3275	-117.724	15.2659	-13.3603	-128.369	-33.0683	17.22	-105.774	-7.72962	6.13905	-101.139	29.6568	20.8796	-110.984	-36.3517	37.6064	-91.6076	-9.19398	28.8502	-97.4678	23.0684	40.0955	-98.5629	-37.9583	61.9256	-83.9506	-10.132	50.7255	-89.4748	19.9445	54.3585	-151.643	-60.1391	81.8907	-169.043	-64.3635	108.78	-188.387	-49.11	79.2128	
43	0.358333	-202.802	-3.31845	80.603	-189.892	23.2567	63.8705	-170.716	44.2121	44.9487	-142.652	51.2212	31.0799	-154.934	-24.1946	11.44	-139.548	-6.80594	-9.06271	-118.469	19.1659	-4.58643	-132.179	-34.0361	18.7135	-109.483	-4.84212	2.3535	-101.723	25.2851	22.1667	-112.48	-33.5987	32.2203	-95.6463	-9.81278	26.527	-100.353	21.5836	47.8527	-102.138	-34.7732	55.7376	-88.4605	-5.9312	52.4995	-99.9773	19.6556	63.1521	-153.592	-58.4482	76.2523	-168.993	-65.2242	107.74	-191.832	-45.4966	77.5321	
44	0.366667	-199.333	-1.48743	83.3351	-186.443	30.8288	64.5349	-161.293	49.441	41.692	-135.908	48.3805	34.718	-159.31	-19.4035	10.5636	-137.344	-3.77337	-7.01379	-116.808	24.3488	6.06377	-139.638	-33.0981	14.9619	-112.49	-11.266	0.910481	-103.585	22.8625	21.954	-114.247	-34.9502	29.1553	-97.7684	-11.1281	25.3223	-104.919	16.0608	52.217	-107.05	-38.1669	55.5926	-92.3134	-4.13798	54.6837	-112.553	15.9529	70.8549	-157.539	-57.9706	75.9	-176.189	-61.2366	102.366	-194.227	-42.2838	72.0877	
45	0.375	-194.482	7.55373	82.4155	-172.635	34.104	65.8294	-148.048	47.4118	49.9085	-124.477	48.4225	38.0995	-162.718	-14.7258	7.86716	-137.349	2.18059	-6.54017	-117.598	23.9398	10.8541	-144.422	-30.9506	8.49301	-113.285	-10.2278	0.726521	-103.892	15.9856	24.6838	-125.81	-36.4575	23.7243	-103.342	-14.9779	22.5867	-109.845	7.97561	55.3403	-109.779	-41.8528	47.1592	-94.5364	-13.4825	52.682	-110.791	4.8398	71.9223	-163.443	-59.8638	73.3753	-184.693	-60.2715	100.934	-198.413	-35.709	74.0727	
46	0.383333	-184.547	16.72	84.2595	-154.811	36.4166	72.9902	-127.496	42.299	54.2172	-104.047	32.8132	38.855	-169.747	-5.7129	8.21797	-141.835	1.52394	-7.60085	-114.152	13.8201	13.5513	-156.501	-23.7485	4.41445	-120.315	-9.11215	-1.94953	-105.283	4.7144	28.9858	-136.054	-42.7142	19.5658	-110.323	-21.6216	18.4231	-108.673	-7.83329	52.8568	-123.866	-51.2501	37.0039	-103.362	-29.8817	41.1651	-110.948	-13.2843	67.8065	-180.245	-52.7464	64.9019	-194.338	-54.5155	98.1524	-203.94	-21.7815	74.2807	
47	0.391667	-171.772	20.5058	91.9453	-139.034	25.3089	77.6187	-109.01	34.4614	56.2651	-89.2692	25.9382	40.7353	-170.577	4.61051	7.89973	-145.454	8.29361	-7.21971	-112.754	11.8743	9.62659	-163.693	-17.2102	6.84866	-125.451	-13.6484	-2.18598	-106.589	-3.8556	31.8993	-145.421	-38.437	12.8608	-118.155	-27.5696	15.5173	-113.197	-18.6347	52.252	-142.593	-53.3561	31.2388	-111.779	-40.3119	35.8751	-115.459	-26.4719	65.5043	-189.665	-45.4536	66.4429	-203.687	-44.4782	93.4034	-205.205	-9.77121	77.5305	
